    <svg
                            width="40"
                            height="40"
                            viewBox="0 0 40 40"
                            fill="none"
                            xmlns="http://www.w3.org/2000/svg"
                          >
                            <g clip-path="url(#clip0_1167_20076)">
                              <path
                                d="M10 11.4325C10 10.6413 10.6575 10 11.4688 10H28.5312C29.3425 10 30 10.6413 30 11.4325V28.5675C30 29.3587 29.3425 30 28.5312 30H11.4688C10.6575 30 10 29.3587 10 28.5675V11.4325ZM16.1788 26.7425V17.7113H13.1775V26.7425H16.1788ZM14.6788 16.4775C15.725 16.4775 16.3762 15.785 16.3762 14.9175C16.3575 14.0312 15.7263 13.3575 14.6988 13.3575C13.6713 13.3575 13 14.0325 13 14.9175C13 15.785 13.6512 16.4775 14.6588 16.4775H14.6788ZM20.8138 26.7425V21.6988C20.8138 21.4288 20.8337 21.1587 20.9137 20.9662C21.13 20.4275 21.6238 19.8687 22.4538 19.8687C23.54 19.8687 23.9738 20.6962 23.9738 21.9113V26.7425H26.975V21.5625C26.975 18.7875 25.495 17.4975 23.52 17.4975C21.9275 17.4975 21.2137 18.3725 20.8138 18.9888V19.02H20.7938C20.8004 19.0096 20.8071 18.9991 20.8138 18.9888V17.7113H17.8137C17.8512 18.5588 17.8137 26.7425 17.8137 26.7425H20.8138Z"
                                fill="#9BA5B5"
                              />
                            </g>
                            <rect
                              x="0.5"
                              y="0.5"
                              width="39"
                              height="39"
                              rx="19.5"
                              stroke="#9BA5B5"
                            />
                            <defs>
                              <clipPath id="clip0_1167_20076">
                                <rect
                                  width="20"
                                  height="20"
                                  fill="white"
                                  transform="translate(10 10)"
                                />
                              </clipPath>
                            </defs>
                          </svg>