<svg width="364" height="140" viewBox="0 0 364 140" fill="none" xmlns="http://www.w3.org/2000/svg">
<rect width="364" height="140" rx="24" fill="white"/>
<path d="M32.0624 29.8688L32.0624 29.8688C31.9441 29.7612 31.875 29.6126 31.875 29.4548C31.875 29.297 31.9441 29.1483 32.0624 29.0407C32.1804 28.9335 32.338 28.875 32.5002 28.875C32.6624 28.875 32.8201 28.9335 32.938 29.0407L37.9374 33.5859C37.996 33.6391 38.0432 33.7029 38.0756 33.7741C38.1081 33.8453 38.125 33.9221 38.125 34C38.125 34.0779 38.1081 34.1547 38.0756 34.2259C38.0432 34.2971 37.996 34.3609 37.9374 34.4141L32.938 38.9593C32.8795 39.0125 32.8107 39.0541 32.7357 39.0824C32.6607 39.1106 32.5808 39.125 32.5002 39.125C32.4197 39.125 32.3397 39.1106 32.2647 39.0824C32.1898 39.0541 32.1209 39.0125 32.0624 38.9593C32.0039 38.9061 31.9567 38.8422 31.9243 38.7711C31.8919 38.6999 31.875 38.6231 31.875 38.5452C31.875 38.4673 31.8919 38.3906 31.9243 38.3194C31.9567 38.2482 32.0039 38.1844 32.0624 38.1312L32.0624 38.1312L36.607 34L32.0624 29.8688Z" fill="#C59B48" stroke="#C59B48" stroke-width="0.25"/>
<path d="M53.022 39V28.85H56.844C58.692 28.85 60.498 29.354 60.498 31.44C60.498 32.392 59.966 33.232 59.364 33.61C60.204 33.988 60.89 34.646 60.89 35.99C60.89 38.174 59.168 39 57.096 39H53.022ZM54.8 34.45V37.572H57.166C58.44 37.572 59.056 36.998 59.056 35.99C59.056 34.94 58.426 34.45 57.068 34.45H54.8ZM54.8 30.278V33.092H57.012C58.062 33.092 58.692 32.644 58.692 31.636C58.692 30.74 58.02 30.278 57.012 30.278H54.8ZM66.9379 36.032V35.458C64.5579 35.682 63.5919 36.032 63.5919 36.886C63.5919 37.544 64.1379 37.936 64.9779 37.936C66.2099 37.936 66.9379 37.32 66.9379 36.032ZM64.6139 39.182C62.9759 39.182 61.8279 38.3 61.8279 36.928C61.8279 35.038 64.1519 34.59 66.8959 34.296V34.156C66.8959 32.868 66.1679 32.476 65.3279 32.476C64.4879 32.476 63.8579 32.924 63.8159 33.834H62.1779C62.2899 32.308 63.5639 31.244 65.3839 31.244C67.1899 31.244 68.6039 32.07 68.5619 34.478C68.5619 34.842 68.5339 35.738 68.5339 36.424C68.5339 37.376 68.6039 38.37 68.7579 39H67.2319C67.1759 38.678 67.1339 38.496 67.0919 37.978C66.6019 38.804 65.7339 39.182 64.6139 39.182ZM71.9126 28.85V39H70.2466V28.85H71.9126ZM78.4496 36.032V35.458C76.0696 35.682 75.1036 36.032 75.1036 36.886C75.1036 37.544 75.6496 37.936 76.4896 37.936C77.7216 37.936 78.4496 37.32 78.4496 36.032ZM76.1256 39.182C74.4876 39.182 73.3396 38.3 73.3396 36.928C73.3396 35.038 75.6636 34.59 78.4076 34.296V34.156C78.4076 32.868 77.6796 32.476 76.8396 32.476C75.9996 32.476 75.3696 32.924 75.3276 33.834H73.6896C73.8016 32.308 75.0756 31.244 76.8956 31.244C78.7016 31.244 80.1156 32.07 80.0736 34.478C80.0736 34.842 80.0456 35.738 80.0456 36.424C80.0456 37.376 80.1156 38.37 80.2696 39H78.7436C78.6876 38.678 78.6456 38.496 78.6036 37.978C78.1136 38.804 77.2456 39.182 76.1256 39.182ZM81.7583 28.85H83.4243V34.492L86.2103 31.468H88.2123L85.3283 34.562L88.5343 39H86.5883L84.2223 35.738L83.4243 36.592V39H81.7583V28.85ZM90.9165 28.85V32.518C91.3505 31.734 92.1345 31.3 93.1985 31.3C95.0185 31.3 95.7605 32.476 95.7605 34.268V39H94.0945V34.674C94.0945 33.652 93.9545 32.658 92.6665 32.658C91.3785 32.658 90.9165 33.638 90.9165 34.996V39H89.2505V28.85H90.9165ZM102.157 36.032V35.458C99.7766 35.682 98.8106 36.032 98.8106 36.886C98.8106 37.544 99.3566 37.936 100.197 37.936C101.429 37.936 102.157 37.32 102.157 36.032ZM99.8326 39.182C98.1946 39.182 97.0466 38.3 97.0466 36.928C97.0466 35.038 99.3706 34.59 102.115 34.296V34.156C102.115 32.868 101.387 32.476 100.547 32.476C99.7066 32.476 99.0766 32.924 99.0346 33.834H97.3966C97.5086 32.308 98.7826 31.244 100.603 31.244C102.409 31.244 103.823 32.07 103.781 34.478C103.781 34.842 103.753 35.738 103.753 36.424C103.753 37.376 103.823 38.37 103.977 39H102.451C102.395 38.678 102.353 38.496 102.311 37.978C101.821 38.804 100.953 39.182 99.8326 39.182ZM107.131 31.468V32.518C107.565 31.734 108.349 31.3 109.413 31.3C111.233 31.3 111.975 32.476 111.975 34.268V39H110.309V34.674C110.309 33.652 110.169 32.658 108.881 32.658C107.593 32.658 107.131 33.638 107.131 34.996V39H105.465V31.468H107.131ZM113.709 28.85H115.375V30.53H113.709V28.85ZM113.709 31.468H115.375V39H113.709V31.468ZM120.715 31.468V29.48H122.381V31.468H123.893V32.672H122.381V36.774C122.381 37.544 122.563 37.726 123.277 37.726H123.879V39H122.647C121.037 39 120.715 38.566 120.715 37.026V32.672H119.595V31.468H120.715ZM129.897 36.032V35.458C127.517 35.682 126.551 36.032 126.551 36.886C126.551 37.544 127.097 37.936 127.937 37.936C129.169 37.936 129.897 37.32 129.897 36.032ZM127.573 39.182C125.935 39.182 124.787 38.3 124.787 36.928C124.787 35.038 127.111 34.59 129.855 34.296V34.156C129.855 32.868 129.127 32.476 128.287 32.476C127.447 32.476 126.817 32.924 126.775 33.834H125.137C125.249 32.308 126.523 31.244 128.343 31.244C130.149 31.244 131.563 32.07 131.521 34.478C131.521 34.842 131.493 35.738 131.493 36.424C131.493 37.376 131.563 38.37 131.717 39H130.191C130.135 38.678 130.093 38.496 130.051 37.978C129.561 38.804 128.693 39.182 127.573 39.182ZM137.322 31.482V33.162C137.042 33.134 136.776 33.12 136.524 33.12C135.474 33.12 134.872 33.54 134.872 35.052V39H133.206V31.468H134.844V32.812C135.25 31.972 135.978 31.468 136.888 31.454C137.014 31.454 137.196 31.468 137.322 31.482ZM138.374 28.85H140.04V30.53H138.374V28.85ZM138.374 31.468H140.04V39H138.374V31.468ZM148.243 31.468L145.667 35.08L148.411 39H146.451L144.673 36.466L142.867 39H141.033L143.777 35.178L141.187 31.468H143.147L144.757 33.792L146.423 31.468H148.243ZM149.407 28.85H151.073V30.53H149.407V28.85ZM149.407 31.468H151.073V39H149.407V31.468Z" fill="#C59B48"/>
<path d="M25.022 75V64.85H28.844C30.692 64.85 32.498 65.354 32.498 67.44C32.498 68.392 31.966 69.232 31.364 69.61C32.204 69.988 32.89 70.646 32.89 71.99C32.89 74.174 31.168 75 29.096 75H25.022ZM26.8 70.45V73.572H29.166C30.44 73.572 31.056 72.998 31.056 71.99C31.056 70.94 30.426 70.45 29.068 70.45H26.8ZM26.8 66.278V69.092H29.012C30.062 69.092 30.692 68.644 30.692 67.636C30.692 66.74 30.02 66.278 29.012 66.278H26.8ZM34.2759 64.85H35.9419V66.53H34.2759V64.85ZM34.2759 67.468H35.9419V75H34.2759V67.468ZM37.2429 75V73.726L41.2749 68.742H37.5229V67.468H43.3469V68.742L39.3009 73.726H43.4449V75H37.2429ZM47.9614 64.85H49.6274V70.492L52.4134 67.468H54.4154L51.5314 70.562L54.7374 75H52.7914L50.4254 71.738L49.6274 72.592V75H47.9614V64.85ZM55.4536 64.85H57.1196V66.53H55.4536V64.85ZM55.4536 67.468H57.1196V75H55.4536V67.468ZM60.6606 70.996V75H58.9946V67.468H60.6606V68.518C61.0946 67.734 61.8366 67.3 62.8446 67.3C64.0206 67.3 64.6926 67.79 65.0426 68.63C65.7006 67.678 66.5546 67.3 67.4926 67.3C69.2846 67.3 69.9566 68.476 69.9566 70.268V75H68.2906V70.674C68.2906 69.652 68.1926 68.658 66.9606 68.658C65.7286 68.658 65.3086 69.638 65.3086 70.996V75H63.6426V70.674C63.6426 69.652 63.5446 68.658 62.3126 68.658C61.0806 68.658 60.6606 69.638 60.6606 70.996ZM71.6958 64.85H73.3618V66.53H71.6958V64.85ZM71.6958 67.468H73.3618V75H71.6958V67.468ZM75.2368 64.85H76.9028V70.492L79.6888 67.468H81.6908L78.8068 70.562L82.0128 75H80.0668L77.7008 71.738L76.9028 72.592V75H75.2368V64.85Z" fill="#46525A"/>
<path d="M34.304 105.918C34.304 107.612 33.772 108.998 32.778 109.936L33.982 111.364L32.89 112.274L31.602 110.748C30.972 111.042 30.258 111.182 29.46 111.182C26.478 111.182 24.616 109.04 24.616 105.918C24.616 102.782 26.478 100.668 29.46 100.668C32.442 100.668 34.304 102.782 34.304 105.918ZM26.45 105.918C26.45 108.396 27.78 109.726 29.46 109.726C29.866 109.726 30.244 109.656 30.566 109.502L29.74 108.508L30.818 107.598L31.686 108.634C32.176 107.976 32.47 107.094 32.47 105.918C32.47 103.454 31.14 102.124 29.46 102.124C27.78 102.124 26.45 103.454 26.45 105.918ZM40.3188 108.032V107.458C37.9388 107.682 36.9728 108.032 36.9728 108.886C36.9728 109.544 37.5188 109.936 38.3588 109.936C39.5908 109.936 40.3188 109.32 40.3188 108.032ZM37.9948 111.182C36.3568 111.182 35.2088 110.3 35.2088 108.928C35.2088 107.038 37.5328 106.59 40.2768 106.296V106.156C40.2768 104.868 39.5488 104.476 38.7088 104.476C37.8688 104.476 37.2388 104.924 37.1968 105.834H35.5588C35.6708 104.308 36.9448 103.244 38.7648 103.244C40.5708 103.244 41.9848 104.07 41.9428 106.478C41.9428 106.842 41.9147 107.738 41.9147 108.424C41.9147 109.376 41.9848 110.37 42.1388 111H40.6128C40.5568 110.678 40.5148 110.496 40.4728 109.978C39.9828 110.804 39.1148 111.182 37.9948 111.182ZM45.2935 103.468V104.518C45.7275 103.734 46.5115 103.3 47.5755 103.3C49.3955 103.3 50.1375 104.476 50.1375 106.268V111H48.4715V106.674C48.4715 105.652 48.3315 104.658 47.0435 104.658C45.7555 104.658 45.2935 105.638 45.2935 106.996V111H43.6275V103.468H45.2935ZM56.5196 111V109.964C56.0856 110.748 55.3156 111.182 54.2936 111.182C52.5016 111.182 51.7736 110.006 51.7736 108.214V103.468H53.4396V107.808C53.4396 108.83 53.5796 109.824 54.8256 109.824C56.0716 109.824 56.5196 108.844 56.5196 107.486V103.468H58.1856V111H56.5196ZM61.727 103.468V104.518C62.161 103.734 62.945 103.3 64.009 103.3C65.829 103.3 66.571 104.476 66.571 106.268V111H64.905V106.674C64.905 105.652 64.765 104.658 63.477 104.658C62.189 104.658 61.727 105.638 61.727 106.996V111H60.061V103.468H61.727ZM69.0645 103.468L70.8005 108.844L72.5225 103.468H74.2585L71.5425 111H69.9745L67.2305 103.468H69.0645ZM81.8631 107.71H76.2491C76.3611 109.11 77.3411 109.796 78.2931 109.796C79.1751 109.796 79.8471 109.46 80.1411 108.746H81.7791C81.4431 109.95 80.2951 111.182 78.3631 111.182C75.9411 111.182 74.5551 109.348 74.5551 107.178C74.5551 104.91 76.1091 103.3 78.2511 103.3C80.5611 103.3 82.0171 105.19 81.8631 107.71ZM78.2511 104.602C77.4671 104.602 76.4031 105.078 76.2491 106.492H80.1691C80.1271 105.316 79.2311 104.602 78.2511 104.602ZM87.3509 103.482V105.162C87.0709 105.134 86.8049 105.12 86.5529 105.12C85.5029 105.12 84.9009 105.54 84.9009 107.052V111H83.2349V103.468H84.8729V104.812C85.2789 103.972 86.0069 103.468 86.9169 103.454C87.0429 103.454 87.2249 103.468 87.3509 103.482ZM88.4028 100.85H90.0688V102.53H88.4028V100.85ZM88.4028 103.468H90.0688V111H88.4028V103.468ZM95.1219 103.3C96.7739 103.3 98.2019 104.378 98.4959 106.044H96.8719C96.7179 105.246 96.0319 104.686 95.1219 104.686C94.0719 104.686 93.1479 105.456 93.1479 107.234C93.1479 109.026 94.0999 109.796 95.0799 109.796C95.9059 109.796 96.7039 109.432 96.9279 108.424H98.5519C98.2159 110.188 96.6619 111.182 95.0519 111.182C92.8679 111.182 91.4259 109.488 91.4259 107.248C91.4259 105.008 92.8679 103.3 95.1219 103.3ZM99.8462 100.85H101.512V102.53H99.8462V100.85ZM99.8462 103.468H101.512V111H99.8462V103.468ZM105.053 100.85V111H103.387V100.85H105.053ZM106.928 100.85H108.594V102.53H106.928V100.85ZM106.928 103.468H108.594V111H106.928V103.468ZM110.469 100.85H112.135V106.492L114.921 103.468H116.923L114.039 106.562L117.245 111H115.299L112.933 107.738L112.135 108.592V111H110.469V100.85Z" fill="#46525A"/>
<path d="M215.14 39H213.334L210.758 30.782V39H209.022V28.85H211.78L214.244 36.942L216.694 28.85H219.452V39H217.716V30.782L215.14 39ZM221.407 28.85H223.073V30.53H221.407V28.85ZM221.407 31.468H223.073V39H221.407V31.468ZM230.814 33.526H229.246C229.064 32.84 228.434 32.574 227.594 32.574C226.866 32.574 226.194 32.896 226.194 33.4C226.194 33.904 226.544 34.17 227.202 34.296L228.266 34.506C229.792 34.8 230.954 35.276 230.954 36.746C230.954 38.314 229.47 39.182 227.762 39.182C225.914 39.182 224.682 38.118 224.5 36.704H226.124C226.278 37.488 226.824 37.922 227.818 37.922C228.7 37.922 229.33 37.558 229.33 36.942C229.33 36.326 228.77 36.06 228.028 35.906L226.894 35.682C225.62 35.416 224.626 34.87 224.626 33.484C224.626 32.154 226.068 31.3 227.692 31.3C229.162 31.3 230.506 32.014 230.814 33.526ZM238.183 33.526H236.615C236.433 32.84 235.803 32.574 234.963 32.574C234.235 32.574 233.563 32.896 233.563 33.4C233.563 33.904 233.913 34.17 234.571 34.296L235.635 34.506C237.161 34.8 238.323 35.276 238.323 36.746C238.323 38.314 236.839 39.182 235.131 39.182C233.283 39.182 232.051 38.118 231.869 36.704H233.493C233.647 37.488 234.193 37.922 235.187 37.922C236.069 37.922 236.699 37.558 236.699 36.942C236.699 36.326 236.139 36.06 235.397 35.906L234.263 35.682C232.989 35.416 231.995 34.87 231.995 33.484C231.995 32.154 233.437 31.3 235.061 31.3C236.531 31.3 237.875 32.014 238.183 33.526ZM239.686 28.85H241.352V30.53H239.686V28.85ZM239.686 31.468H241.352V39H239.686V31.468ZM243.689 41.45H242.933V40.176H243.563C244.291 40.176 244.599 40.12 244.935 39.14L245.019 38.958L242.289 31.468H244.109L245.817 36.872L247.525 31.468H249.233L246.587 38.986C245.873 40.932 245.383 41.45 243.689 41.45ZM254.479 36.032V35.458C252.099 35.682 251.133 36.032 251.133 36.886C251.133 37.544 251.679 37.936 252.519 37.936C253.751 37.936 254.479 37.32 254.479 36.032ZM252.155 39.182C250.517 39.182 249.369 38.3 249.369 36.928C249.369 35.038 251.693 34.59 254.437 34.296V34.156C254.437 32.868 253.709 32.476 252.869 32.476C252.029 32.476 251.399 32.924 251.357 33.834H249.719C249.831 32.308 251.105 31.244 252.925 31.244C254.731 31.244 256.145 32.07 256.103 34.478C256.103 34.842 256.075 35.738 256.075 36.424C256.075 37.376 256.145 38.37 256.299 39H254.773C254.717 38.678 254.675 38.496 254.633 37.978C254.143 38.804 253.275 39.182 252.155 39.182ZM259.454 34.996V39H257.788V31.468H259.454V32.518C259.888 31.734 260.63 31.3 261.638 31.3C262.814 31.3 263.486 31.79 263.836 32.63C264.494 31.678 265.348 31.3 266.286 31.3C268.078 31.3 268.75 32.476 268.75 34.268V39H267.084V34.674C267.084 33.652 266.986 32.658 265.754 32.658C264.522 32.658 264.102 33.638 264.102 34.996V39H262.436V34.674C262.436 33.652 262.338 32.658 261.106 32.658C259.874 32.658 259.454 33.638 259.454 34.996ZM270.489 31.468H272.155V39H270.489V31.468ZM273.456 39V37.726L277.488 32.742H273.736V31.468H279.56V32.742L275.514 37.726H279.658V39H273.456Z" fill="#46525A"/>
<path d="M212.802 70.632L211.57 70.394C209.96 70.058 208.644 69.246 208.644 67.524C208.644 65.634 210.618 64.668 212.48 64.668C214.496 64.668 216.05 65.578 216.456 67.692H214.734C214.44 66.474 213.39 66.124 212.382 66.124C211.598 66.124 210.436 66.474 210.436 67.468C210.436 68.252 211.066 68.644 211.948 68.812L213.194 69.05C214.972 69.386 216.666 70.058 216.666 72.088C216.666 74.146 214.636 75.182 212.634 75.182C210.212 75.182 208.588 73.88 208.364 71.64H210.114C210.436 73.04 211.318 73.726 212.718 73.726C213.922 73.726 214.888 73.18 214.888 72.2C214.888 71.15 213.768 70.814 212.802 70.632ZM218.254 67.468V65.48H219.92V67.468H221.432V68.672H219.92V72.774C219.92 73.544 220.102 73.726 220.816 73.726H221.418V75H220.186C218.576 75 218.254 74.566 218.254 73.026V68.672H217.134V67.468H218.254ZM226.89 67.482V69.162C226.61 69.134 226.344 69.12 226.092 69.12C225.042 69.12 224.44 69.54 224.44 71.052V75H222.774V67.468H224.412V68.812C224.818 67.972 225.546 67.468 226.456 67.454C226.582 67.454 226.764 67.468 226.89 67.482ZM232.59 75V73.964C232.156 74.748 231.386 75.182 230.364 75.182C228.572 75.182 227.844 74.006 227.844 72.214V67.468H229.51V71.808C229.51 72.83 229.65 73.824 230.896 73.824C232.142 73.824 232.59 72.844 232.59 71.486V67.468H234.256V75H232.59ZM236.131 64.85H237.797V70.492L240.583 67.468H242.585L239.701 70.562L242.907 75H240.961L238.595 71.738L237.797 72.592V75H236.131V64.85ZM243.862 67.468V65.48H245.528V67.468H247.04V68.672H245.528V72.774C245.528 73.544 245.71 73.726 246.424 73.726H247.026V75H245.794C244.184 75 243.862 74.566 243.862 73.026V68.672H242.742V67.468H243.862ZM253.029 75V73.964C252.595 74.748 251.825 75.182 250.803 75.182C249.011 75.182 248.283 74.006 248.283 72.214V67.468H249.949V71.808C249.949 72.83 250.089 73.824 251.335 73.824C252.581 73.824 253.029 72.844 253.029 71.486V67.468H254.695V75H253.029ZM260.687 67.482V69.162C260.407 69.134 260.141 69.12 259.889 69.12C258.839 69.12 258.237 69.54 258.237 71.052V75H256.571V67.468H258.209V68.812C258.615 67.972 259.343 67.468 260.253 67.454C260.379 67.454 260.561 67.468 260.687 67.482Z" fill="#46525A"/>
<path d="M215.196 111L213.054 106.716C212.886 106.73 212.704 106.73 212.522 106.73H210.8V111H209.022V100.85H212.256C215.238 100.85 216.778 101.522 216.778 103.776C216.778 105.078 216.148 105.96 214.874 106.394L217.198 111H215.196ZM212.508 102.278H210.8V105.316H212.564C214.09 105.316 214.958 105.008 214.958 103.79C214.958 102.46 213.908 102.278 212.508 102.278ZM217.813 106.772H223.427C223.315 105.372 222.335 104.686 221.383 104.686C220.501 104.686 219.829 105.022 219.535 105.736H217.897C218.233 104.532 219.381 103.3 221.313 103.3C223.735 103.3 225.121 105.134 225.121 107.304C225.121 109.572 223.567 111.182 221.425 111.182C219.115 111.182 217.659 109.292 217.813 106.772ZM221.425 109.88C222.209 109.88 223.273 109.404 223.427 107.99H219.507C219.549 109.166 220.445 109.88 221.425 109.88ZM228.145 100.85V104.518C228.579 103.734 229.363 103.3 230.427 103.3C232.247 103.3 232.989 104.476 232.989 106.268V111H231.323V106.674C231.323 105.652 231.183 104.658 229.895 104.658C228.607 104.658 228.145 105.638 228.145 106.996V111H226.479V100.85H228.145ZM236.319 107.234C236.319 108.97 237.173 109.824 238.265 109.824C239.385 109.824 240.169 108.844 240.169 107.234C240.169 105.666 239.385 104.658 238.265 104.658C237.173 104.658 236.319 105.498 236.319 107.234ZM234.723 100.85H236.389V104.476C236.837 103.734 237.621 103.3 238.629 103.3C240.421 103.3 241.905 104.826 241.905 107.234C241.905 109.656 240.421 111.182 238.629 111.182C237.621 111.182 236.837 110.748 236.389 110.006V111H234.723V100.85ZM242.86 106.772H248.474C248.362 105.372 247.382 104.686 246.43 104.686C245.548 104.686 244.876 105.022 244.582 105.736H242.944C243.28 104.532 244.428 103.3 246.36 103.3C248.782 103.3 250.168 105.134 250.168 107.304C250.168 109.572 248.614 111.182 246.472 111.182C244.162 111.182 242.706 109.292 242.86 106.772ZM246.472 109.88C247.256 109.88 248.32 109.404 248.474 107.99H244.554C244.596 109.166 245.492 109.88 246.472 109.88ZM255.642 103.482V105.162C255.362 105.134 255.096 105.12 254.844 105.12C253.794 105.12 253.192 105.54 253.192 107.052V111H251.526V103.468H253.164V104.812C253.57 103.972 254.298 103.468 255.208 103.454C255.334 103.454 255.516 103.468 255.642 103.482ZM258.36 100.85V111H256.694V100.85H258.36ZM260.235 100.85H261.901V102.53H260.235V100.85ZM260.235 103.468H261.901V111H260.235V103.468ZM263.776 100.85H265.442V106.492L268.228 103.468H270.23L267.346 106.562L270.552 111H268.606L266.24 107.738L265.442 108.592V111H263.776V100.85Z" fill="#46525A"/>
</svg>
