<svg width="20" height="20" viewBox="0 0 20 20" fill="none" xmlns="http://www.w3.org/2000/svg">
<path d="M8.06243 5.86885L8.06242 5.86884C7.94406 5.76123 7.875 5.61259 7.875 5.45478C7.875 5.29696 7.94406 5.14832 8.06242 5.04071C8.18039 4.93346 8.33804 4.875 8.50022 4.875C8.6624 4.875 8.82005 4.93346 8.93802 5.04071L13.9374 9.58589C13.996 9.63909 14.0432 9.70292 14.0756 9.77408C14.1081 9.84529 14.125 9.9221 14.125 10C14.125 10.0779 14.1081 10.1547 14.0756 10.2259C14.0432 10.2971 13.996 10.3609 13.9374 10.4141L8.93802 14.9593C8.8795 15.0125 8.81066 15.0541 8.7357 15.0824C8.66075 15.1106 8.58076 15.125 8.50022 15.125C8.41968 15.125 8.3397 15.1106 8.26474 15.0824C8.18978 15.0541 8.12094 15.0125 8.06243 14.9593C8.00389 14.9061 7.95674 14.8422 7.92433 14.7711C7.89189 14.6999 7.875 14.6231 7.875 14.5452C7.875 14.4673 7.89189 14.3906 7.92433 14.3194C7.95674 14.2482 8.00389 14.1844 8.06242 14.1312L8.06243 14.1312L12.607 10L8.06243 5.86885Z" fill="#C59B48" stroke="#C59B48" stroke-width="0.25"/>
</svg>
